# xmcd
# 
# Track frame offsets:
#     150
#     20432
#     45744
#     66510
#     100925
#     121805
#     147331
#     168909
#     188468
#     214819
# 
# Disc length: 3070
# 
# Revision: 4
# Processed by: cddbd v1.5.2PL0 Copyright (c) Steve Scherf et al.
# Submitted via: fre:ac v1.0.27
# 
DISCID=890bfc0a
DTITLE=Jimmy Thackery with the Cate Brothers - In The Natural State
DYEAR=2006
DGENRE=Blues Rock
TTITLE0=Out Of Mississippi
TTITLE1=Arky Shuffle
TTITLE2=I Got A Rich Man's Woman
TTITLE3=Levee Prayer
TTITLE4=Ain't That A Lot Of Love
TTITLE5=I'll Come Running Back To You
TTITLE6=Hoodoo Man Blues
TTITLE7=Snatch It Back And Hold It
TTITLE8=Howlin' For My Darling
TTITLE9=Tell Me Goodbye
EXTD=
EXTT0=
EXTT1=
EXTT2=
EXTT3=
EXTT4=
EXTT5=
EXTT6=
EXTT7=
EXTT8=
EXTT9=
PLAYORDER=
